<?xml version="1.0" encoding="UTF-8"?>
<svg id="Glyph_Line" xmlns="http://www.w3.org/2000/svg" version="1.1" viewBox="0 0 64 64">
  <!-- Generator: Adobe Illustrator 29.8.3, SVG Export Plug-In . SVG Version: 2.1.1 Build 3)  -->
  <defs>
    <style>
      .st0 {
        fill: #335c67;
      }

      .st1 {
        fill: #fff;
      }
    </style>
  </defs>
  <circle class="st1" cx="32" cy="32" r="32"/>
  <path class="st0" d="M48.21,43.93c0,4.45-3.62,8.07-8.07,8.07h-16.28c-4.45,0-8.07-3.62-8.07-8.07v-10.39c0-2.13,1.73-3.86,3.86-3.86h1.15v-6.48c0-6.19,5.01-11.2,11.2-11.2s11.2,5.02,11.2,11.2h0v1.33c0,.58-.49,1.05-1.07,1.04-.57-.01-1.03-.47-1.04-1.04v-1.33c0-2.42-.95-4.73-2.66-6.44-5.62-5.7-15.57-1.58-15.52,6.44v6.48h21.44c2.13,0,3.86,1.73,3.86,3.86v10.39Z"/>
  <path class="st1" d="M44.35,31.79h-24.7c-.97,0-1.75.78-1.75,1.75v10.39c0,3.29,2.67,5.96,5.96,5.96h16.28c3.29,0,5.96-2.67,5.96-5.96v-10.39c0-.97-.78-1.75-1.75-1.75Z"/>
</svg>