<?xml version="1.0" encoding="UTF-8"?>
<svg id="Circular_Glyph" xmlns="http://www.w3.org/2000/svg" version="1.1" viewBox="0 0 64 64">
  <!-- Generator: Adobe Illustrator 29.8.3, SVG Export Plug-In . SVG Version: 2.1.1 Build 3)  -->
  <defs>
    <style>
      .st0 {
        fill: #335c67;
        stroke: #335c67;
        stroke-miterlimit: 10;
      }

      .st1 {
        fill: #fff;
      }
    </style>
  </defs>
  <path class="st1" d="M32,37.28c-1.75.02-3.15,1.46-3.13,3.21.02,1.32.85,2.49,2.08,2.94v1.23c0,.58.47,1.05,1.05,1.05s1.05-.47,1.05-1.05h0v-1.23c1.65-.6,2.49-2.42,1.89-4.07-.45-1.24-1.62-2.07-2.94-2.08Z"/>
  <path class="st1" d="M32,0C14.33,0,0,14.33,0,32s14.33,32,32,32,32-14.33,32-32S49.67,0,32,0Z"/>
  <path class="st0" d="M48.23,43.96c0,4.46-3.62,8.07-8.08,8.08h-16.3c-4.46,0-8.07-3.62-8.08-8.08v-10.4c0-2.13,1.73-3.86,3.86-3.87h1.15v-6.49c.62-14.88,21.82-14.88,22.44,0v6.49h1.15c2.13,0,3.86,1.74,3.86,3.87,0,0,0,10.4,0,10.4Z"/>
  <path class="st1" d="M44.35,31.79h-24.7c-.97,0-1.75.78-1.75,1.75v10.39c0,3.29,2.67,5.96,5.96,5.96h16.28c3.29,0,5.96-2.67,5.96-5.96v-10.39c0-.97-.78-1.75-1.75-1.75Z"/>
  <path class="st1" d="M41.11,23.2v6.49h-18.22v-6.49c0-5.03,4.08-9.11,9.11-9.11s9.11,4.08,9.11,9.11Z"/>
</svg>