<?xml version="1.0" encoding="UTF-8"?>
<svg id="Glyph_Line" xmlns="http://www.w3.org/2000/svg" version="1.1" viewBox="0 0 64 64">
  <!-- Generator: Adobe Illustrator 30.0.0, SVG Export Plug-In . SVG Version: 2.1.1 Build 123)  -->
  <defs>
    <style>
      .st0 {
        fill: #335c67;
      }

      .st1 {
        fill: #fff;
      }
    </style>
  </defs>
  <path class="st1" d="M32,0C14.33,0,0,14.33,0,32s14.33,32,32,32,32-14.33,32-32S49.67,0,32,0Z"/>
  <path class="st0" d="M48.21,33.54v10.39c0,4.45-3.62,8.07-8.07,8.07h-16.28c-4.45,0-8.07-3.62-8.07-8.07v-10.39c0-2.13,1.73-3.86,3.86-3.86h21.44v-6.48c.05-8.02-9.9-12.14-15.52-6.44-1.71,1.71-2.66,4.02-2.66,6.44h0c0,.57-.47,1.03-1.04,1.04-.58.01-1.07-.46-1.07-1.04h0c0-3.09,1.25-5.89,3.28-7.92s4.82-3.28,7.92-3.28c6.19,0,11.2,5.01,11.2,11.2v6.48h1.15c2.13,0,3.86,1.73,3.86,3.86Z"/>
  <path class="st1" d="M17.9,33.54v10.39c0,3.29,2.67,5.96,5.96,5.96h16.28c3.29,0,5.96-2.67,5.96-5.96v-10.39c0-.97-.78-1.75-1.75-1.75h-24.7c-.97,0-1.75.78-1.75,1.75Z"/>
</svg>