<?xml version="1.0" encoding="UTF-8"?>
<svg id="Glyph_Line" xmlns="http://www.w3.org/2000/svg" version="1.1" viewBox="0 0 64 64">
  <!-- Generator: Adobe Illustrator 30.0.0, SVG Export Plug-In . SVG Version: 2.1.1 Build 123)  -->
  <path d="M32,41.47c-.58,0-1.04-.48-1.04-1.06,0-.57.47-1.03,1.04-1.04.58,0,1.04.48,1.04,1.06,0,.57-.47,1.03-1.04,1.04Z"/>
  <path d="M44.35,31.79h-24.7c-.97,0-1.75.78-1.75,1.75v10.39c0,3.29,2.67,5.96,5.96,5.96h16.28c3.29,0,5.96-2.67,5.96-5.96v-10.39c0-.97-.78-1.75-1.75-1.75ZM33.05,43.38v1.25c0,.58-.48,1.04-1.06,1.04-.57,0-1.03-.47-1.04-1.04v-1.25c-1.64-.58-2.5-2.38-1.92-4.02.58-1.64,2.38-2.5,4.02-1.92s2.5,2.38,1.92,4.02c-.32.9-1.02,1.6-1.92,1.92Z"/>
  <path d="M32,0C14.33,0,0,14.33,0,32s14.33,32,32,32,32-14.33,32-32C64,14.33,49.67,0,32,0ZM48.21,43.93c0,4.45-3.62,8.07-8.07,8.07h-16.28c-4.45,0-8.07-3.62-8.07-8.07v-10.39c0-2.13,1.73-3.86,3.86-3.86h1.15v-6.48c0-6.19,5.01-11.2,11.2-11.2,6.19,0,11.2,5.02,11.2,11.2,0,0,0,0,0,0v1.33c-.01.58-.49,1.05-1.07,1.04-.57-.01-1.03-.47-1.04-1.04v-1.33c0-2.42-.95-4.73-2.66-6.44-5.62-5.7-15.57-1.58-15.52,6.44v6.48h21.44c2.13,0,3.86,1.73,3.86,3.86v10.39Z"/>
</svg>